<?xml version="1.0" encoding="utf-8"?>
<!-- Generator: Adobe Illustrator 24.0.1, SVG Export Plug-In . SVG Version: 6.00 Build 0)  -->
<svg version="1.1" id="Layer_1" xmlns="http://www.w3.org/2000/svg" xmlns:xlink="http://www.w3.org/1999/xlink" x="0px" y="0px"
	 viewBox="0 0 140 48" style="enable-background:new 0 0 140 48;" xml:space="preserve">
<style type="text/css">
	.st0{fill-rule:evenodd;clip-rule:evenodd;fill:#FFFFFF;stroke:#023136;}
	.st1{fill-rule:evenodd;clip-rule:evenodd;fill:#002F34;}
</style>
<g>
	<path class="st0" d="M6.5,0.5h127c3.3,0,6,2.7,6,6V41c0,3.3-2.7,6-6,6H6.5c-3.3,0-6-2.7-6-6V6.5C0.5,3.2,3.2,0.5,6.5,0.5z"/>
	<path class="st1" d="M54.2,34.7h-2.4l-1.3-4.1H46l-1.2,4.1h-2.3l4.5-14h2.8L54.2,34.7L54.2,34.7z M61.6,24.4c1.2,0,2.2,0.5,3,1.4
		c0.8,0.9,1.2,2.2,1.2,3.7c0,1.7-0.5,3.1-1.4,4.1c-0.8,0.9-1.9,1.3-3.1,1.3c-1.3,0-2.3-0.5-2.9-1.4h0v5.3h-2.2V28
		c0-1.1,0-2.2-0.1-3.3h2l0.1,1.6h0C59,25,60.1,24.4,61.6,24.4z M73.2,24.4c1.2,0,2.2,0.5,3,1.4c0.8,0.9,1.2,2.2,1.2,3.7
		c0,1.7-0.5,3.1-1.4,4.1c-0.8,0.9-1.9,1.3-3.1,1.3c-1.3,0-2.3-0.5-2.9-1.4h0v5.3h-2.2V28c0-1.1,0-2.2-0.1-3.3h2l0.1,1.6h0
		C70.5,25,71.7,24.4,73.2,24.4z M104,24.4c1.5,0,2.7,0.5,3.6,1.5c0.9,1,1.3,2.2,1.3,3.7c0,1.5-0.4,2.8-1.3,3.8
		c-0.9,1-2.2,1.5-3.7,1.5c-1.5,0-2.7-0.5-3.5-1.5c-0.9-1-1.3-2.2-1.3-3.7c0-1.6,0.5-2.8,1.4-3.8C101.2,24.9,102.5,24.4,104,24.4
		L104,24.4z M86.6,20.6c1.3,0,2.3,0.2,3.2,0.7L89.2,23c-0.8-0.4-1.7-0.6-2.7-0.6c-0.8,0-1.4,0.2-1.8,0.6c-0.4,0.3-0.6,0.8-0.6,1.3
		c0,0.6,0.2,1,0.6,1.4c0.4,0.3,1.1,0.7,2,1.1c1.2,0.5,2.1,1,2.7,1.7c0.6,0.6,0.8,1.5,0.8,2.4c0,1.2-0.4,2.2-1.2,2.9
		c-0.9,0.8-2.2,1.2-3.8,1.2c-1.5,0-2.7-0.3-3.6-0.9l0.5-1.9c1,0.6,2.1,0.9,3.2,0.9c0.8,0,1.5-0.2,2-0.6c0.5-0.4,0.7-0.9,0.7-1.5
		c0-0.6-0.2-1-0.6-1.4c-0.4-0.4-1-0.7-1.9-1.1c-2.4-0.9-3.7-2.2-3.7-4c0-1.1,0.4-2.1,1.3-2.8C84,20.9,85.2,20.6,86.6,20.6z
		 M95.2,22.1v2.5h2.5v1.7h-2.5v4.9c0,1.2,0.4,1.9,1.3,1.9c0.4,0,0.7,0,1-0.1l0.1,1.7c-0.4,0.2-1,0.2-1.7,0.2c-0.9,0-1.6-0.3-2.1-0.8
		c-0.5-0.5-0.7-1.4-0.7-2.7v-5.1h-1.5v-1.7H93v-1.8C93,22.8,95.2,22.1,95.2,22.1z M121.9,24.4c1.5,0,2.6,0.5,3.3,1.6
		c0.6,0.9,0.9,1.9,0.9,3.2c0,0.4,0,0.7-0.1,1h-6.7c0,1,0.3,1.8,1,2.3c0.6,0.5,1.3,0.7,2.2,0.7c1,0,1.9-0.2,2.7-0.5l0.3,1.6
		c-1,0.4-2.1,0.6-3.4,0.6c-1.6,0-2.8-0.5-3.7-1.4c-0.9-0.9-1.3-2.2-1.3-3.7c0-1.5,0.4-2.8,1.2-3.8C119.3,25,120.5,24.4,121.9,24.4z
		 M115.6,24.4c0.2,0,0.4,0,0.6,0v2.1c-0.2,0-0.5-0.1-0.7-0.1c-0.8,0-1.4,0.3-1.8,0.9c-0.4,0.5-0.6,1.2-0.6,2v5.3h-2.2l0-6.9
		c0-1.2,0-2.2-0.1-3.2h1.9l0.1,1.9h0.1c0.2-0.7,0.6-1.2,1.1-1.6C114.4,24.6,115,24.4,115.6,24.4L115.6,24.4z M103.9,26.1
		c-0.9,0-1.6,0.4-2.1,1.2c-0.4,0.7-0.6,1.5-0.6,2.4c0,0.9,0.2,1.7,0.6,2.4c0.5,0.8,1.2,1.2,2,1.2c0.9,0,1.5-0.4,2-1.2
		c0.4-0.7,0.6-1.5,0.6-2.4c0-0.9-0.2-1.7-0.6-2.4C105.4,26.5,104.8,26.1,103.9,26.1z M60.9,26.2c-0.6,0-1.1,0.2-1.5,0.5
		c-0.4,0.4-0.7,0.8-0.9,1.4c-0.1,0.3-0.1,0.5-0.1,0.7v1.7c0,0.7,0.2,1.4,0.7,1.9c0.4,0.5,1,0.8,1.8,0.8c0.8,0,1.5-0.3,2-1
		c0.5-0.6,0.7-1.5,0.7-2.6c0-1-0.2-1.8-0.7-2.4C62.4,26.6,61.7,26.2,60.9,26.2z M72.5,26.2c-0.6,0-1.1,0.2-1.5,0.5
		c-0.4,0.4-0.7,0.8-0.9,1.4C70,28.4,70,28.7,70,28.9v1.7c0,0.7,0.2,1.4,0.7,1.9c0.4,0.5,1,0.8,1.8,0.8c0.8,0,1.5-0.3,2-1
		c0.5-0.6,0.7-1.5,0.7-2.6c0-1-0.2-1.8-0.7-2.4C73.9,26.6,73.3,26.2,72.5,26.2z M48.3,22.6c0.3,1.4,0.6,2.3,0.7,2.6l1.2,3.6h-3.8
		l1.2-3.6C47.9,24.1,48.1,23.2,48.3,22.6L48.3,22.6z M121.8,26c-0.7,0-1.3,0.3-1.8,0.9c-0.4,0.5-0.6,1.1-0.7,1.7h4.7
		c0-0.7-0.1-1.2-0.4-1.7C123.2,26.3,122.6,26,121.8,26L121.8,26z M53.2,10.7c0.7,0,1.3,0.2,1.8,0.7c0.4,0.5,0.6,1.1,0.6,1.8
		c0,0.8-0.2,1.4-0.7,1.9c-0.5,0.5-1.1,0.8-1.8,0.8c-0.7,0-1.3-0.2-1.7-0.7c-0.4-0.5-0.6-1.1-0.6-1.8c0-0.8,0.2-1.4,0.7-1.9
		S52.4,10.7,53.2,10.7z M76.6,10.7c0.7,0,1.3,0.2,1.8,0.7c0.4,0.5,0.6,1.1,0.6,1.8c0,0.8-0.2,1.4-0.7,1.9c-0.5,0.5-1.1,0.8-1.8,0.8
		c-0.7,0-1.3-0.2-1.7-0.7c-0.4-0.5-0.6-1.1-0.6-1.8c0-0.8,0.2-1.4,0.7-1.9C75.3,10.9,75.9,10.7,76.6,10.7z M82.3,10.7
		c1.3,0,1.9,0.7,1.9,2v1.8c0,0.5,0,0.9,0.1,1.2h-1l-0.1-0.6h0c-0.3,0.5-0.8,0.7-1.4,0.7c-0.5,0-0.8-0.1-1.1-0.4
		c-0.3-0.3-0.4-0.6-0.4-1c0-0.6,0.3-1.1,0.8-1.4c0.5-0.3,1.2-0.5,2.1-0.5v-0.1c0-0.7-0.3-1-1-1c-0.5,0-0.9,0.1-1.3,0.4l-0.2-0.7
		C81.1,10.8,81.6,10.7,82.3,10.7z M90.5,8.5v5.9c0,0.5,0,0.9,0,1.3h-1L89.5,15h0c-0.3,0.6-0.8,0.9-1.6,0.9c-0.6,0-1.1-0.2-1.5-0.7
		c-0.4-0.5-0.6-1.1-0.6-1.8c0-0.8,0.2-1.4,0.6-1.9c0.4-0.5,0.9-0.7,1.5-0.7c0.7,0,1.1,0.2,1.4,0.7h0V8.5H90.5L90.5,8.5z M97.6,10.7
		c0.7,0,1.3,0.2,1.8,0.7c0.4,0.5,0.6,1.1,0.6,1.8c0,0.8-0.2,1.4-0.7,1.9c-0.5,0.5-1.1,0.8-1.8,0.8c-0.7,0-1.3-0.2-1.7-0.7
		c-0.4-0.5-0.6-1.1-0.6-1.8c0-0.8,0.2-1.4,0.7-1.9S96.8,10.7,97.6,10.7L97.6,10.7z M112.1,9.6v1.2h1.2v0.8h-1.2V14
		c0,0.6,0.2,0.9,0.6,0.9c0.2,0,0.4,0,0.5-0.1l0,0.8c-0.2,0.1-0.5,0.1-0.9,0.1c-0.4,0-0.8-0.1-1-0.4c-0.2-0.3-0.4-0.7-0.4-1.3v-2.5
		h-0.7v-0.8h0.7V9.9C111,9.9,112.1,9.6,112.1,9.6z M123.1,10.7c0.7,0,1.3,0.3,1.6,0.8c0.3,0.4,0.4,0.9,0.4,1.6c0,0.2,0,0.4,0,0.5
		h-3.3c0,0.5,0.2,0.9,0.5,1.1c0.3,0.2,0.6,0.3,1.1,0.3c0.5,0,0.9-0.1,1.3-0.2l0.2,0.8c-0.5,0.2-1,0.3-1.7,0.3
		c-0.8,0-1.4-0.2-1.8-0.7c-0.4-0.5-0.7-1.1-0.7-1.8c0-0.7,0.2-1.4,0.6-1.9C121.8,11,122.3,10.7,123.1,10.7z M45.7,8.8
		c1.2,0,2.1,0.3,2.7,0.8c0.7,0.6,1,1.4,1,2.5c0,1.2-0.4,2.2-1.1,2.8c-0.7,0.6-1.7,0.9-2.9,0.9c-0.6,0-1.2,0-1.6-0.1V9
		C44.4,8.9,45,8.8,45.7,8.8L45.7,8.8z M67.8,10.7c0.5,0,0.8,0.1,1.2,0.4c0.4,0.4,0.6,0.9,0.6,1.6v3h-1.1v-2.8c0-0.9-0.3-1.3-1-1.3
		c-0.3,0-0.6,0.1-0.8,0.4c-0.2,0.2-0.3,0.5-0.3,0.8v2.9h-1.1v-3.5c0-0.4,0-0.9,0-1.4h1l0.1,0.8h0c0.1-0.2,0.3-0.5,0.6-0.6
		C67.1,10.8,67.4,10.7,67.8,10.7z M57.8,10.8l0.6,2.4c0.1,0.6,0.2,1.1,0.3,1.6h0c0.1-0.4,0.2-0.9,0.4-1.6l0.7-2.4h0.9l0.7,2.3
		c0.2,0.6,0.3,1.1,0.4,1.6h0c0.1-0.5,0.2-1.1,0.3-1.6l0.6-2.3h1.1v0l-1.5,4.9h-1l-0.6-2.1c-0.2-0.5-0.3-1.1-0.4-1.6h0
		c-0.1,0.5-0.2,1.1-0.4,1.6l-0.7,2.1h-1l-1.5-4.9H57.8z M72.5,8.5v7.2h-1.1V8.5H72.5z M104.2,10.7c0.5,0,0.8,0.1,1.2,0.4
		c0.4,0.4,0.6,0.9,0.6,1.6v3h-1.1v-2.8c0-0.9-0.3-1.3-1-1.3c-0.3,0-0.6,0.1-0.8,0.4c-0.2,0.2-0.3,0.5-0.3,0.8v2.9h-1.1v-3.5
		c0-0.4,0-0.9,0-1.4h1l0.1,0.8h0c0.1-0.2,0.3-0.4,0.6-0.6C103.5,10.8,103.8,10.7,104.2,10.7L104.2,10.7z M115.9,8.5v3h0
		c0.3-0.5,0.8-0.8,1.5-0.8c0.5,0,0.8,0.1,1.1,0.4c0.4,0.4,0.6,0.9,0.6,1.7v2.9H118v-2.8c0-0.9-0.3-1.3-1-1.3c-0.5,0-0.9,0.3-1.1,0.8
		c0,0.1-0.1,0.2-0.1,0.4v3h-1.1V8.5L115.9,8.5L115.9,8.5z M97.6,11.5c-0.4,0-0.8,0.2-1,0.6c-0.2,0.3-0.3,0.7-0.3,1.2
		c0,0.5,0.1,0.8,0.3,1.2c0.2,0.4,0.6,0.6,1,0.6c0.4,0,0.8-0.2,1-0.6c0.2-0.3,0.3-0.7,0.3-1.2c0-0.5-0.1-0.8-0.3-1.2
		C98.3,11.7,98,11.5,97.6,11.5L97.6,11.5z M83.2,13.3c-1.2,0-1.8,0.3-1.8,1c0,0.3,0.1,0.5,0.2,0.6c0.1,0.1,0.3,0.2,0.5,0.2
		c0.2,0,0.5-0.1,0.7-0.2c0.3-0.2,0.4-0.5,0.4-0.8C83.2,14.1,83.2,13.3,83.2,13.3z M76.6,11.5c-0.4,0-0.8,0.2-1,0.6
		c-0.2,0.3-0.3,0.7-0.3,1.2c0,0.5,0.1,0.8,0.3,1.2c0.2,0.4,0.6,0.6,1,0.6c0.4,0,0.7-0.2,1-0.6c0.2-0.3,0.3-0.7,0.3-1.2
		c0-0.5-0.1-0.8-0.3-1.2C77.3,11.7,77,11.5,76.6,11.5z M53.1,11.5c-0.4,0-0.8,0.2-1,0.6c-0.2,0.3-0.3,0.7-0.3,1.2
		c0,0.5,0.1,0.8,0.3,1.2c0.2,0.4,0.6,0.6,1,0.6c0.4,0,0.8-0.2,1-0.6c0.2-0.3,0.3-0.7,0.3-1.2c0-0.5-0.1-0.8-0.3-1.2
		C53.9,11.7,53.6,11.5,53.1,11.5z M88.3,11.6c-0.4,0-0.7,0.2-1,0.5c-0.2,0.3-0.4,0.7-0.4,1.3c0,0.5,0.1,0.9,0.3,1.2
		c0.2,0.3,0.6,0.5,1,0.5c0.4,0,0.7-0.1,0.9-0.4c0.2-0.2,0.3-0.6,0.3-0.9v-0.8c0-0.4-0.1-0.8-0.4-1C88.8,11.6,88.5,11.6,88.3,11.6z
		 M45.7,9.7c-0.3,0-0.6,0-0.9,0.1v5.1c0.1,0,0.4,0,0.7,0c0.8,0,1.5-0.2,2-0.7c0.5-0.5,0.7-1.1,0.7-2c0-0.8-0.2-1.4-0.6-1.8
		C47.2,9.9,46.6,9.7,45.7,9.7z M123,11.5c-0.4,0-0.7,0.1-0.9,0.4c-0.2,0.2-0.3,0.5-0.3,0.9h2.3c0-0.3-0.1-0.6-0.2-0.8
		C123.7,11.6,123.4,11.5,123,11.5z M26.9,15l0.3,0c0.9,0,3.4,0.3,4.9,2.7c-0.1,0.1-3,1.7-2.9,5.1c0,4.1,3.6,5.4,3.6,5.5
		c0,0.1-0.6,2-1.9,3.8c-1.1,1.7-2.3,3.3-4.1,3.3c-1.8,0-2.4-1.1-4.5-1.1c-2.1,0-2.7,1-4.4,1.1c-1.8,0.1-3.1-1.8-4.2-3.4
		c-2.3-3.4-4.1-9.5-1.7-13.6c1.2-2,3.3-3.3,5.5-3.4c1.8,0,3.4,1.2,4.5,1.2c1.1,0,3.1-1.5,5.2-1.2L26.9,15z M27.2,8.5
		c0.2,1.6-0.5,3.2-1.4,4.3c-1,1.1-2.5,2-4,1.9c-0.2-1.5,0.6-3.2,1.4-4.2C24.2,9.4,25.9,8.6,27.2,8.5z"/>
</g>
</svg>
