<?xml version="1.0" encoding="utf-8"?>
<!-- Generator: Adobe Illustrator 24.0.1, SVG Export Plug-In . SVG Version: 6.00 Build 0)  -->
<svg version="1.1" id="Layer_1" xmlns="http://www.w3.org/2000/svg" xmlns:xlink="http://www.w3.org/1999/xlink" x="0px" y="0px"
	 viewBox="0 0 140 48" style="enable-background:new 0 0 140 48;" xml:space="preserve">
<style type="text/css">
	.st0{fill-rule:evenodd;clip-rule:evenodd;fill:#FFFFFF;stroke:#023136;}
	.st1{fill-rule:evenodd;clip-rule:evenodd;fill:url(#SVGID_1_);}
	.st2{fill-rule:evenodd;clip-rule:evenodd;fill:url(#SVGID_2_);}
	.st3{fill-rule:evenodd;clip-rule:evenodd;fill:url(#SVGID_3_);}
	.st4{fill-rule:evenodd;clip-rule:evenodd;fill:url(#SVGID_4_);}
	.st5{fill-rule:evenodd;clip-rule:evenodd;fill:#002F34;}
</style>
<g>
	<path class="st0" d="M6.5,0.5h127c3.3,0,6,2.7,6,6V41c0,3.3-2.7,6-6,6H6.5c-3.3,0-6-2.7-6-6V6.5C0.5,3.2,3.2,0.5,6.5,0.5z"/>
	
		<linearGradient id="SVGID_1_" gradientUnits="userSpaceOnUse" x1="-206.3634" y1="426.373" x2="-206.3634" y2="425.373" gradientTransform="matrix(11.273 0 0 -21.44 2342.6589 9160.8154)">
		<stop  offset="0" style="stop-color:#1E79AF"/>
		<stop  offset="1" style="stop-color:#63FFD3"/>
	</linearGradient>
	<path class="st1" d="M11.3,19.4c-0.4,0.1-0.7,0.5-0.7,1.1l0,19.2c0,0.6,0.2,1,0.6,1.1L22,30.1L11.3,19.4"/>
	
		<linearGradient id="SVGID_2_" gradientUnits="userSpaceOnUse" x1="-209.9433" y1="407.8036" x2="-210.738" y2="407.3158" gradientTransform="matrix(13.98 0 0 -10.7755 2957.7822 4426.9937)">
		<stop  offset="0" style="stop-color:#DC4057"/>
		<stop  offset="1" style="stop-color:#9E36BB"/>
	</linearGradient>
	<path class="st2" d="M11.3,40.8c0.3,0.1,0.6,0,1-0.2l13-7.2L22,30.1L11.3,40.8"/>
	
		<linearGradient id="SVGID_3_" gradientUnits="userSpaceOnUse" x1="-199.6186" y1="385.9001" x2="-199.6186" y2="384.9219" gradientTransform="matrix(8.4445 0 0 -6.73 1711.8617 2623.8398)">
		<stop  offset="0" style="stop-color:#FF9676"/>
		<stop  offset="1" style="stop-color:#FFD074"/>
	</linearGradient>
	<path class="st3" d="M25.3,33.5l4.4-2.5c0.9-0.5,0.9-1.3,0-1.8l-4.4-2.5L22,30.1L25.3,33.5"/>
	
		<linearGradient id="SVGID_4_" gradientUnits="userSpaceOnUse" x1="-210.6137" y1="407.6757" x2="-209.7882" y2="407.0817" gradientTransform="matrix(13.948 0 0 -10.7519 2950.5349 4405.7529)">
		<stop  offset="0" style="stop-color:#51C6AD"/>
		<stop  offset="1" style="stop-color:#D5FFA1"/>
	</linearGradient>
	<path class="st4" d="M25.3,26.7l-13-7.2c-0.4-0.2-0.7-0.2-1-0.2L22,30.1L25.3,26.7"/>
	<path class="st5" d="M81,25.9l-1.3,0.7h-1.3c0.5,0.4,1.5,1.2,1.5,2.8c0,1.5-0.9,2.3-1.7,2.9c-0.3,0.3-0.6,0.6-0.6,1
		c0,0.5,0.3,0.7,0.5,0.9l0.7,0.6c0.9,0.8,1.7,1.5,1.7,2.9c0,1.9-1.9,3.9-5.4,3.9c-3,0-4.4-1.4-4.4-3c0-0.7,0.4-1.8,1.6-2.5
		c1.3-0.8,3-0.9,3.9-1c-0.3-0.4-0.6-0.8-0.6-1.4c0-0.3,0.1-0.6,0.2-0.8c-0.2,0-0.4,0-0.7,0c-2.2,0-3.4-1.6-3.4-3.2
		c0-1,0.4-2,1.3-2.8c1.2-1,2.6-1.1,3.7-1.1C76.8,25.9,81,25.9,81,25.9z M76.5,35.8c-0.2,0-1.3,0-2.2,0.3c-0.5,0.2-1.8,0.7-1.8,2.1
		c0,1.5,1.4,2.5,3.6,2.5c2,0,3-1,3-2.2c0-1.1-0.7-1.6-2.2-2.7C76.8,35.8,76.7,35.8,76.5,35.8z M121.9,25.8l3.5,8.5l3.5-8.5h1.2
		l-5,11.8c-0.5,1.2-1.3,1.8-2.4,1.8c-0.4,0-0.7,0-1-0.1l0.2-1c0.2,0.1,0.6,0.2,0.8,0.2c0.6,0,1.1-0.3,1.5-1.2l0.8-1.7l-4.1-9.8
		L121.9,25.8L121.9,25.8z M103.4,25.6c2.6,0,4.3,2,4.3,5.1c0,3.1-1.7,5.1-4.3,5.1c-1.4,0-2.6-0.7-3.3-1.8v5.3h-1V25.8h1v1.5
		C100.7,26.3,102,25.6,103.4,25.6z M43,21.5c1,0,2,0.2,2.9,0.4c1.4,0.4,2.1,0.9,2.5,1.2l-1.6,1.5l-0.7,0.2l0.5-0.8
		c-0.7-0.6-1.8-1.8-4.1-1.8c-3,0-5.3,2.3-5.3,5.7c0,3.6,2.6,7.1,6.8,7.1c1.2,0,1.9-0.2,2.4-0.5v-3.1l-2.9,0.2l1.5-0.8h4.1l-0.5,0.5
		c-0.1,0.1-0.2,0.2-0.2,0.3c0,0.2,0,0.7,0,0.9v2.4l-2.7,0.6c-1.1,0.2-2.1,0.3-3.2,0.3c-5.3,0-7.3-3.9-7.3-7
		C35.3,25,38.1,21.5,43,21.5z M115.9,25.5c1.1,0,2,0.3,2.7,0.8c0.7,0.5,1,1.3,1,2.4v4.8c0,0.7,0.1,1.3,0.3,2h-1.2
		c-0.1-0.3-0.1-0.6-0.2-0.9c0-0.2-0.1-0.5-0.1-0.8c-0.4,0.5-0.9,1-1.5,1.3c-0.6,0.3-1.3,0.5-2.1,0.5c-1,0-1.8-0.2-2.4-0.8
		c-0.6-0.5-0.8-1.2-0.8-2.1c0-0.9,0.4-1.6,1.2-2.1c0.8-0.5,1.9-0.8,3.2-0.8h2.4v-1.2c0-0.7-0.2-1.2-0.7-1.6c-0.5-0.4-1.1-0.6-2-0.6
		c-0.8,0-1.4,0.2-1.9,0.5c-0.5,0.4-0.7,0.8-0.7,1.4h-1.1l0-0.1c0-0.7,0.3-1.4,1-1.9C113.9,25.8,114.8,25.5,115.9,25.5L115.9,25.5z
		 M90.4,25.6c0.7,0,1.5,0.2,2.1,0.6c1,0.7,1.3,1.6,1.4,2l-4.8,2l-1.6,0.1c0.5,2.6,2.3,4.2,4.2,4.2c1,0,1.7-0.3,2.4-0.7
		c0,0,0.1-0.1,0,0l-1,0.9c-0.2,0.1-0.5,0.3-0.7,0.4c-0.7,0.3-1.4,0.4-2,0.4c-0.7,0-1.7,0-2.7-0.8c-1.5-1-2.1-2.8-2.1-4.4
		C85.7,27.2,88.3,25.6,90.4,25.6L90.4,25.6z M55.1,25.6c3,0,4.9,2.4,4.9,4.9c0,2.4-1.9,5-5.2,5c-3.3,0-5-2.6-5-4.9
		C49.8,27.9,52,25.6,55.1,25.6z M66,25.6c3,0,4.9,2.4,4.9,4.9c0,2.4-1.9,5-5.2,5c-3.3,0-5-2.6-5-4.9C60.7,27.9,62.9,25.6,66,25.6z
		 M110.2,22.1v13.4h-1V22.1C109.1,22.1,110.2,22.1,110.2,22.1z M85,20.6c-0.6,0.4-0.8,0.6-0.9,1.3l0,11.7c0,0.8,0.1,0.9,0.8,1
		c0.4,0,0.7,0.1,1,0.1l-0.8,0.5h-3.6c0.5-0.6,0.6-0.7,0.6-1.1v-0.5l0-12.3h-1.6l1.5-0.7L85,20.6L85,20.6z M54.6,26.2
		c-0.7,0-1.4,0.3-1.8,0.7c-0.8,0.7-0.9,1.6-0.9,2.5c0,2,1,5.4,3.5,5.4c0.8,0,1.6-0.4,2.1-1.1c0.5-0.7,0.6-1.5,0.6-2.3
		C58,29.7,57.1,26.2,54.6,26.2z M65.5,26.2c-0.7,0-1.4,0.3-1.8,0.7c-0.8,0.7-0.9,1.6-0.9,2.5c0,2,1,5.4,3.5,5.4
		c0.8,0,1.6-0.4,2.1-1.1c0.5-0.7,0.6-1.5,0.6-2.3C68.9,29.7,68.1,26.2,65.5,26.2z M103.2,26.5c-1.3,0-2.6,1.1-3.2,2v4.3
		c0.6,0.9,1.8,2,3.2,2c2.2,0,3.4-1.8,3.4-4.2C106.6,28.3,105.4,26.5,103.2,26.5z M118.6,30.7h-2.4c-0.9,0-1.7,0.2-2.3,0.6
		c-0.6,0.4-0.9,0.9-0.9,1.5c0,0.6,0.2,1,0.6,1.3c0.4,0.3,0.9,0.5,1.6,0.5c0.9,0,1.5-0.2,2.2-0.6c0.6-0.4,1.1-0.9,1.3-1.5
		C118.6,32.6,118.6,30.7,118.6,30.7z M75.5,26.5c-0.5,0-1.1,0.3-1.4,0.7c-0.3,0.4-0.5,1-0.5,1.5c0,1.4,0.8,3.7,2.6,3.7
		c0.5,0,1.1-0.3,1.4-0.6c0.5-0.5,0.5-1.1,0.5-1.5C78.1,28.9,77.2,26.5,75.5,26.5z M89.8,26.3c-0.8,0-2.4,0.6-2.4,2.9
		c0,0.4,0,0.7,0.1,1.1l3.7-1.6c0.4-0.1,0.6-0.3,0.6-0.6C91.8,27.2,90.9,26.3,89.8,26.3L89.8,26.3z M38.7,7.6c1.3,0,2.1,0.6,2.7,1.4
		l-0.9,0.5c-0.4-0.6-1-0.9-1.7-0.9c-1.3,0-2.3,1-2.3,2.4c0,1.4,1,2.4,2.3,2.4c0.7,0,1.3-0.3,1.6-0.6v-1h-2v-1h3.1v2.5
		c-0.7,0.8-1.7,1.2-2.7,1.2c-1.9,0-3.5-1.4-3.5-3.4C35.2,9,36.7,7.6,38.7,7.6L38.7,7.6z M72.4,7.6c2,0,3.4,1.4,3.4,3.4
		c0,2-1.4,3.4-3.4,3.4c-2,0-3.4-1.4-3.4-3.4C69,9.1,70.4,7.6,72.4,7.6z M47.3,7.7v1H44v1.7h3.3v1H44v1.8h3.4v1h-4.5V7.7L47.3,7.7
		L47.3,7.7z M53.7,7.7v1h-2v5.6h-1.2V8.8h-2v-1L53.7,7.7L53.7,7.7z M58.9,7.7v6.6h-1.2V7.7L58.9,7.7L58.9,7.7z M65.3,7.7v1h-2v5.6
		h-1.2V8.8h-2v-1L65.3,7.7L65.3,7.7z M78.4,7.7l3.4,4.6V7.7h1.2v6.6h-1.1l-3.4-4.7v4.7h-1.2V7.7L78.4,7.7L78.4,7.7z M72.4,8.7
		c-1.3,0-2.2,1-2.2,2.4c0,1.4,0.9,2.4,2.2,2.4c1.3,0,2.2-1,2.2-2.4C74.6,9.7,73.8,8.7,72.4,8.7z"/>
</g>
</svg>
